<svg id="svg" version="1.1" xmlns="http://www.w3.org/2000/svg" xmlns:xlink="http://www.w3.org/1999/xlink" width="30" height="30" viewBox="125, 125, 150,150"><g id="svgg"><path id="path0" d="M188.200 136.800 C 188.064 137.020,187.074 137.200,186.000 137.200 C 184.926 137.200,183.936 137.380,183.800 137.600 C 183.664 137.820,182.944 138.000,182.200 138.000 C 181.456 138.000,180.736 138.180,180.600 138.400 C 180.464 138.620,179.834 138.800,179.200 138.800 C 178.566 138.800,177.936 138.980,177.800 139.200 C 177.664 139.420,177.124 139.600,176.600 139.600 C 176.076 139.600,175.536 139.780,175.400 140.000 C 175.264 140.220,174.713 140.400,174.176 140.400 C 173.639 140.400,173.200 140.580,173.200 140.800 C 173.200 141.020,172.928 141.200,172.595 141.200 C 172.262 141.200,171.677 141.364,171.295 141.565 C 170.913 141.766,169.610 142.397,168.400 142.967 C 166.201 144.003,163.977 145.223,163.600 145.600 C 163.490 145.710,163.040 145.997,162.600 146.238 C 160.687 147.284,159.787 147.813,159.600 148.002 C 159.490 148.114,158.721 148.711,157.891 149.330 C 157.061 149.948,155.944 150.892,155.409 151.427 C 154.874 151.962,154.293 152.405,154.118 152.411 C 153.615 152.429,150.371 155.597,148.400 157.995 C 147.410 159.200,146.105 160.711,145.500 161.352 C 144.895 161.994,144.400 162.696,144.400 162.912 C 144.400 163.129,144.085 163.599,143.700 163.957 C 143.315 164.316,142.775 165.012,142.500 165.504 C 142.225 165.997,141.775 166.805,141.500 167.300 C 141.225 167.795,140.910 168.290,140.800 168.400 C 140.228 168.972,137.777 173.768,136.711 176.400 C 136.489 176.950,136.148 177.713,135.953 178.095 C 135.759 178.477,135.600 179.141,135.600 179.571 C 135.600 180.001,135.420 180.464,135.200 180.600 C 134.980 180.736,134.800 181.366,134.800 182.000 C 134.800 182.634,134.620 183.264,134.400 183.400 C 134.180 183.536,134.000 184.166,134.000 184.800 C 134.000 185.434,133.820 186.064,133.600 186.200 C 133.380 186.336,133.200 187.326,133.200 188.400 C 133.200 189.474,133.020 190.464,132.800 190.600 C 132.551 190.754,132.400 194.463,132.400 200.400 C 132.400 206.337,132.551 210.046,132.800 210.200 C 133.020 210.336,133.200 211.326,133.200 212.400 C 133.200 213.474,133.380 214.464,133.600 214.600 C 133.820 214.736,134.000 215.366,134.000 216.000 C 134.000 216.634,134.180 217.264,134.400 217.400 C 134.620 217.536,134.800 218.166,134.800 218.800 C 134.800 219.434,134.980 220.064,135.200 220.200 C 135.420 220.336,135.600 220.799,135.600 221.229 C 135.600 221.659,135.759 222.323,135.953 222.705 C 136.148 223.087,136.489 223.850,136.711 224.400 C 137.777 227.032,140.228 231.828,140.800 232.400 C 140.910 232.510,141.197 232.960,141.438 233.400 C 142.675 235.663,143.058 236.246,143.700 236.843 C 144.085 237.201,144.400 237.671,144.400 237.888 C 144.400 238.104,144.895 238.806,145.500 239.448 C 146.105 240.089,147.410 241.600,148.400 242.805 C 150.371 245.203,153.615 248.371,154.118 248.389 C 154.293 248.395,154.874 248.838,155.409 249.373 C 155.944 249.908,157.061 250.852,157.891 251.470 C 158.721 252.089,159.490 252.686,159.600 252.798 C 159.710 252.909,160.205 253.225,160.700 253.500 C 161.195 253.775,162.005 254.225,162.500 254.500 C 162.995 254.775,163.490 255.090,163.600 255.200 C 164.401 256.001,171.644 259.600,172.455 259.600 C 172.865 259.600,173.200 259.780,173.200 260.000 C 173.200 260.220,173.639 260.400,174.176 260.400 C 174.713 260.400,175.264 260.580,175.400 260.800 C 175.536 261.020,176.076 261.200,176.600 261.200 C 177.124 261.200,177.664 261.380,177.800 261.600 C 177.936 261.820,178.566 262.000,179.200 262.000 C 179.834 262.000,180.464 262.180,180.600 262.400 C 180.736 262.620,181.456 262.800,182.200 262.800 C 182.944 262.800,183.664 262.980,183.800 263.200 C 183.936 263.420,184.926 263.600,186.000 263.600 C 187.074 263.600,188.064 263.780,188.200 264.000 C 188.354 264.249,192.196 264.400,198.400 264.400 C 204.604 264.400,208.446 264.249,208.600 264.000 C 208.736 263.780,209.726 263.600,210.800 263.600 C 211.874 263.600,212.864 263.420,213.000 263.200 C 213.136 262.980,213.856 262.800,214.600 262.800 C 215.344 262.800,216.064 262.620,216.200 262.400 C 216.336 262.180,216.966 262.000,217.600 262.000 C 218.234 262.000,218.864 261.820,219.000 261.600 C 219.136 261.380,219.676 261.200,220.200 261.200 C 220.724 261.200,221.264 261.020,221.400 260.800 C 221.536 260.580,222.087 260.400,222.624 260.400 C 223.161 260.400,223.600 260.220,223.600 260.000 C 223.600 259.780,223.935 259.600,224.345 259.600 C 225.156 259.600,232.399 256.001,233.200 255.200 C 233.310 255.090,233.805 254.775,234.300 254.500 C 234.795 254.225,235.605 253.775,236.100 253.500 C 236.595 253.225,237.090 252.909,237.200 252.798 C 237.310 252.686,238.030 252.126,238.800 251.553 C 239.570 250.979,240.774 249.990,241.475 249.355 C 242.176 248.720,243.633 247.480,244.713 246.600 C 245.792 245.720,247.246 244.259,247.944 243.353 C 248.641 242.447,249.706 241.187,250.310 240.553 C 250.914 239.919,251.848 238.770,252.385 238.000 C 252.922 237.230,253.460 236.510,253.581 236.400 C 253.701 236.290,254.025 235.795,254.300 235.300 C 254.575 234.805,255.025 233.995,255.300 233.500 C 255.575 233.005,255.890 232.510,256.000 232.400 C 256.572 231.828,259.023 227.032,260.089 224.400 C 260.311 223.850,260.652 223.087,260.847 222.705 C 261.041 222.323,261.200 221.659,261.200 221.229 C 261.200 220.799,261.380 220.336,261.600 220.200 C 261.820 220.064,262.000 219.434,262.000 218.800 C 262.000 218.166,262.180 217.536,262.400 217.400 C 262.620 217.264,262.800 216.544,262.800 215.800 C 262.800 215.056,262.980 214.336,263.200 214.200 C 263.420 214.064,263.600 213.164,263.600 212.200 C 263.600 211.236,263.780 210.336,264.000 210.200 C 264.249 210.046,264.400 206.337,264.400 200.400 C 264.400 194.463,264.249 190.754,264.000 190.600 C 263.780 190.464,263.600 189.564,263.600 188.600 C 263.600 187.636,263.420 186.736,263.200 186.600 C 262.980 186.464,262.800 185.744,262.800 185.000 C 262.800 184.256,262.620 183.536,262.400 183.400 C 262.180 183.264,262.000 182.634,262.000 182.000 C 262.000 181.366,261.820 180.736,261.600 180.600 C 261.380 180.464,261.200 180.001,261.200 179.571 C 261.200 179.141,261.041 178.477,260.847 178.095 C 260.652 177.713,260.311 176.950,260.089 176.400 C 259.023 173.768,256.572 168.972,256.000 168.400 C 255.890 168.290,255.575 167.795,255.300 167.300 C 255.025 166.805,254.575 165.997,254.300 165.504 C 254.025 165.012,253.485 164.316,253.100 163.957 C 252.715 163.599,252.400 163.129,252.400 162.912 C 252.400 162.696,251.905 161.994,251.300 161.352 C 250.695 160.711,249.390 159.208,248.400 158.013 C 246.500 155.719,243.409 152.709,242.679 152.441 C 242.441 152.353,241.834 151.871,241.332 151.368 C 240.829 150.866,239.739 149.948,238.909 149.330 C 238.079 148.711,237.310 148.114,237.200 148.002 C 237.090 147.891,236.595 147.575,236.100 147.300 C 235.605 147.025,234.795 146.575,234.300 146.300 C 233.805 146.025,233.310 145.710,233.200 145.600 C 232.823 145.223,230.599 144.003,228.400 142.967 C 227.190 142.397,225.887 141.766,225.505 141.565 C 225.123 141.364,224.538 141.200,224.205 141.200 C 223.872 141.200,223.600 141.020,223.600 140.800 C 223.600 140.580,223.161 140.400,222.624 140.400 C 222.087 140.400,221.536 140.220,221.400 140.000 C 221.264 139.780,220.724 139.600,220.200 139.600 C 219.676 139.600,219.136 139.420,219.000 139.200 C 218.864 138.980,218.234 138.800,217.600 138.800 C 216.966 138.800,216.336 138.620,216.200 138.400 C 216.064 138.180,215.344 138.000,214.600 138.000 C 213.856 138.000,213.136 137.820,213.000 137.600 C 212.864 137.380,211.874 137.200,210.800 137.200 C 209.726 137.200,208.736 137.020,208.600 136.800 C 208.446 136.551,204.604 136.400,198.400 136.400 C 192.196 136.400,188.354 136.551,188.200 136.800 M205.261 160.178 C 220.706 163.451,232.652 176.223,234.772 191.729 C 235.007 193.450,235.200 199.084,235.200 204.249 L 235.200 213.641 236.576 214.216 C 242.046 216.501,241.616 226.195,235.945 228.423 C 233.653 229.323,232.507 229.057,231.861 227.473 L 231.362 226.251 230.674 227.701 C 228.424 232.442,224.418 234.543,217.279 234.726 C 210.482 234.901,210.800 235.174,210.800 229.151 C 210.800 223.801,210.722 223.700,208.352 226.000 C 206.115 228.171,205.258 228.056,204.648 225.500 C 204.403 224.475,203.200 223.901,203.200 224.810 C 203.200 225.035,202.750 225.391,202.200 225.600 C 201.563 225.842,201.200 226.291,201.200 226.837 C 201.200 227.722,198.440 230.800,197.647 230.800 C 197.401 230.800,197.197 231.385,197.194 232.100 C 197.191 232.815,197.056 233.580,196.894 233.800 C 194.926 236.479,193.600 234.869,193.600 229.800 C 193.600 227.533,193.439 226.000,193.200 226.000 C 192.980 226.000,192.800 226.553,192.800 227.229 C 192.800 230.031,189.892 230.563,189.673 227.800 C 189.525 225.928,189.017 225.223,188.320 225.920 C 187.426 226.814,185.774 226.490,185.165 225.300 C 184.643 224.282,184.586 224.568,184.400 229.116 C 184.154 235.151,184.517 234.853,177.600 234.706 C 170.474 234.555,166.231 232.422,164.435 228.085 C 163.916 226.830,163.200 226.349,163.200 227.253 C 163.200 228.951,160.795 229.390,158.321 228.144 C 153.646 225.790,153.712 215.974,158.414 214.335 L 159.529 213.946 159.701 202.073 C 159.895 188.564,160.118 187.276,163.406 180.600 C 171.073 165.037,188.370 156.598,205.261 160.178 M189.200 161.200 C 188.446 161.687,190.078 161.687,191.600 161.200 C 192.516 160.907,192.483 160.877,191.200 160.846 C 190.430 160.827,189.530 160.987,189.200 161.200 M203.200 161.200 C 204.722 161.687,206.354 161.687,205.600 161.200 C 205.270 160.987,204.370 160.827,203.600 160.846 C 202.317 160.877,202.284 160.907,203.200 161.200 M186.000 162.000 C 185.236 162.494,186.058 162.494,187.600 162.000 L 188.600 161.680 187.600 161.646 C 187.050 161.627,186.330 161.787,186.000 162.000 M194.200 162.000 C 193.142 162.189,194.226 162.289,197.400 162.293 C 201.019 162.298,201.757 162.221,200.400 161.980 C 198.271 161.601,196.395 161.607,194.200 162.000 M207.400 162.000 C 208.596 162.514,209.595 162.514,208.800 162.000 C 208.470 161.787,207.840 161.622,207.400 161.634 L 206.600 161.656 207.400 162.000 M182.000 163.549 C 176.449 166.385,174.405 167.906,170.105 172.400 C 168.300 174.287,164.617 179.551,164.903 179.836 C 164.994 179.927,166.007 178.576,167.153 176.833 C 170.742 171.380,176.211 166.742,182.572 163.756 C 184.127 163.026,185.130 162.428,184.800 162.427 C 184.470 162.426,183.210 162.931,182.000 163.549 M189.400 162.800 C 188.671 163.113,188.688 163.144,189.600 163.144 C 190.150 163.144,190.960 162.989,191.400 162.800 C 192.129 162.487,192.112 162.456,191.200 162.456 C 190.650 162.456,189.840 162.611,189.400 162.800 M203.400 162.800 C 203.840 162.989,204.740 163.138,205.400 163.132 C 206.570 163.121,206.575 163.112,205.600 162.800 C 204.133 162.330,202.306 162.330,203.400 162.800 M186.400 163.600 C 185.867 163.945,185.867 163.988,186.400 163.988 C 186.730 163.988,187.270 163.813,187.600 163.600 C 188.133 163.255,188.133 163.212,187.600 163.212 C 187.270 163.212,186.730 163.387,186.400 163.600 M190.000 164.031 C 177.477 166.844,167.630 176.290,164.180 188.800 C 163.406 191.606,162.769 216.005,163.469 215.995 C 163.651 215.993,164.160 215.233,164.600 214.306 C 166.713 209.856,172.265 207.200,179.455 207.200 C 184.169 207.200,184.386 207.524,184.397 214.600 L 184.404 219.400 185.379 218.200 L 186.353 217.000 187.612 217.702 C 189.198 218.586,189.600 218.334,189.600 216.456 C 189.600 214.199,190.852 213.309,192.171 214.629 C 192.517 214.974,192.800 215.874,192.800 216.629 C 192.800 217.383,192.980 218.000,193.200 218.000 C 193.438 218.000,193.605 216.425,193.613 214.100 C 193.627 209.812,194.025 208.800,195.697 208.800 C 196.729 208.800,197.183 209.601,197.195 211.444 C 197.200 212.298,199.623 215.200,200.330 215.200 C 200.786 215.200,201.200 216.164,201.200 217.225 C 201.200 217.702,201.572 218.078,202.200 218.236 C 202.750 218.374,203.200 218.660,203.200 218.873 C 203.200 220.268,204.624 218.775,204.800 217.196 C 205.096 214.535,208.000 214.547,208.000 217.209 C 208.000 217.728,208.309 218.156,208.772 218.277 C 209.197 218.388,209.657 218.771,209.794 219.128 C 210.375 220.644,210.788 218.411,210.794 213.716 C 210.802 207.555,211.053 207.200,215.402 207.200 C 222.860 207.200,226.894 209.167,230.576 214.600 L 231.660 216.200 231.472 204.000 C 231.197 186.165,229.365 180.788,220.827 172.751 C 212.136 164.570,201.276 161.498,190.000 164.031 M206.833 163.363 C 206.925 163.453,207.990 163.882,209.200 164.317 C 210.410 164.752,211.760 165.245,212.200 165.413 C 212.743 165.620,212.872 165.586,212.600 165.308 C 212.163 164.860,207.845 163.200,207.118 163.200 C 206.870 163.200,206.742 163.273,206.833 163.363 M215.111 165.300 C 221.721 169.045,226.619 174.219,230.073 181.105 C 231.133 183.219,231.994 184.690,231.987 184.374 C 231.975 183.798,230.467 180.653,228.908 177.951 C 226.167 173.203,221.181 168.187,216.650 165.621 C 215.852 165.169,214.565 164.440,213.788 164.000 C 213.011 163.560,212.157 163.200,211.890 163.200 C 211.623 163.200,213.072 164.145,215.111 165.300 M183.253 164.653 C 182.513 164.976,181.992 165.325,182.095 165.428 C 182.199 165.532,183.075 165.266,184.042 164.837 C 185.009 164.408,185.530 164.058,185.200 164.061 C 184.870 164.063,183.994 164.330,183.253 164.653 M177.861 167.610 C 173.567 170.483,164.986 180.000,166.690 180.000 C 166.863 180.000,167.247 179.453,167.543 178.785 C 168.814 175.912,178.975 166.400,180.773 166.400 C 180.982 166.400,181.264 166.220,181.400 166.000 C 181.930 165.143,180.742 165.683,177.861 167.610 M214.800 166.521 C 214.800 166.616,215.524 167.173,216.409 167.759 C 220.103 170.203,223.926 173.949,226.302 177.453 C 228.042 180.018,230.400 184.813,230.400 185.786 C 230.400 186.098,230.580 186.464,230.800 186.600 C 232.020 187.354,229.362 181.280,226.769 177.389 C 224.132 173.432,214.800 164.959,214.800 166.521 M164.687 183.257 C 163.709 185.599,163.113 187.646,163.341 187.874 C 163.462 187.995,163.688 187.578,163.844 186.947 C 163.999 186.316,164.462 185.010,164.873 184.043 C 165.284 183.077,165.536 182.203,165.433 182.100 C 165.331 181.998,164.995 182.518,164.687 183.257 M232.006 185.676 C 232.018 186.681,232.787 187.508,232.794 186.524 C 232.797 186.042,232.620 185.536,232.400 185.400 C 232.180 185.264,232.003 185.388,232.006 185.676 M161.888 186.533 C 161.410 187.749,161.524 188.773,162.039 187.887 C 162.267 187.496,162.391 186.866,162.315 186.487 C 162.188 185.860,162.151 185.864,161.888 186.533 M231.234 188.000 C 231.222 188.550,231.387 189.270,231.600 189.600 C 232.109 190.387,232.109 188.984,231.600 187.800 C 231.285 187.067,231.254 187.084,231.234 188.000 M232.834 188.600 C 232.872 189.966,233.538 191.242,233.566 190.000 C 233.578 189.450,233.413 188.730,233.200 188.400 C 232.880 187.905,232.816 187.940,232.834 188.600 M162.578 189.778 C 162.427 190.581,162.404 191.337,162.526 191.460 C 162.648 191.582,162.872 191.025,163.022 190.222 C 163.173 189.419,163.196 188.663,163.074 188.540 C 162.952 188.418,162.728 188.975,162.578 189.778 M161.088 189.733 C 160.930 190.136,160.818 191.126,160.840 191.933 L 160.880 193.400 161.252 191.811 C 161.681 189.981,161.565 188.519,161.088 189.733 M232.063 192.000 C 232.054 192.770,232.195 194.120,232.377 195.000 L 232.708 196.600 232.714 194.600 C 232.717 193.500,232.576 192.150,232.400 191.600 C 232.108 190.689,232.078 190.725,232.063 192.000 M162.096 209.267 C 162.043 218.654,161.891 226.619,161.757 226.967 C 161.226 228.352,158.172 226.958,156.798 224.704 C 156.310 223.904,156.002 223.657,156.001 224.066 C 155.997 225.980,161.610 229.081,162.217 227.500 C 162.322 227.225,162.360 219.170,162.300 209.600 L 162.191 192.200 162.096 209.267 M233.653 203.234 L 233.600 214.268 235.490 215.234 C 236.529 215.765,237.789 216.812,238.290 217.559 C 238.802 218.324,239.200 218.645,239.200 218.293 C 239.200 217.563,235.742 214.400,234.944 214.400 C 234.502 214.400,234.393 212.686,234.365 205.300 C 234.346 200.295,234.190 195.300,234.018 194.200 C 233.823 192.948,233.687 196.325,233.653 203.234 M175.600 208.400 C 174.637 208.603,175.544 208.711,178.500 208.747 C 181.479 208.784,182.800 208.943,182.800 209.267 C 182.800 209.523,182.916 209.618,183.057 209.476 C 184.269 208.264,179.510 207.577,175.600 208.400 M212.300 208.432 C 211.683 208.791,211.600 209.544,211.600 214.775 C 211.600 219.991,211.522 220.704,210.955 220.656 C 210.108 220.582,209.402 221.707,209.741 222.591 C 209.917 223.050,210.283 223.219,210.805 223.083 C 211.568 222.883,211.600 223.082,211.600 228.014 C 211.600 230.840,211.735 233.236,211.900 233.338 C 212.065 233.440,212.200 228.006,212.200 221.262 L 212.200 209.000 216.400 208.800 C 219.780 208.639,220.287 208.542,219.000 208.304 C 216.724 207.884,213.123 207.952,212.300 208.432 M171.800 209.200 C 171.505 209.678,172.289 209.678,173.400 209.200 C 174.114 208.893,174.085 208.853,173.124 208.828 C 172.532 208.813,171.936 208.980,171.800 209.200 M221.600 209.200 C 222.388 209.709,223.315 209.709,223.000 209.200 C 222.864 208.980,222.358 208.803,221.876 208.806 C 221.164 208.811,221.112 208.885,221.600 209.200 M169.802 210.124 C 167.869 211.277,164.423 215.357,164.943 215.876 C 165.052 215.985,165.410 215.553,165.740 214.916 C 166.326 213.782,169.095 211.067,170.626 210.124 C 171.052 209.861,171.220 209.647,171.000 209.647 C 170.780 209.647,170.241 209.861,169.802 210.124 M174.400 210.000 C 173.749 210.209,174.830 210.334,177.500 210.360 C 179.993 210.384,181.600 210.243,181.600 210.000 C 181.600 209.526,175.879 209.526,174.400 210.000 M194.643 210.233 C 194.025 211.843,194.384 233.508,195.033 233.757 C 195.893 234.087,196.000 234.067,196.000 233.576 C 196.000 233.343,195.820 233.264,195.600 233.400 C 195.337 233.563,195.202 229.572,195.206 221.724 C 195.210 213.878,195.345 210.005,195.600 210.400 C 195.931 210.913,195.989 210.898,195.994 210.300 C 196.002 209.427,194.972 209.376,194.643 210.233 M213.242 210.149 C 212.920 210.537,212.818 213.904,212.893 221.649 L 213.000 232.600 216.708 232.715 C 218.748 232.778,220.728 232.647,221.108 232.422 C 221.592 232.138,220.564 232.091,217.700 232.267 L 213.600 232.520 213.600 221.460 L 213.600 210.400 217.500 210.360 C 221.987 210.314,221.182 209.705,216.549 209.640 C 214.580 209.612,213.557 209.770,213.242 210.149 M223.600 209.742 C 223.600 209.820,224.438 210.405,225.461 211.042 C 226.630 211.769,227.896 213.079,228.861 214.562 C 229.708 215.861,230.400 216.714,230.400 216.457 C 230.400 215.403,227.674 211.975,225.924 210.829 C 224.156 209.671,223.600 209.411,223.600 209.742 M170.145 211.700 C 168.165 213.023,165.584 216.358,165.620 217.545 C 165.631 217.905,166.013 217.431,166.468 216.492 C 167.524 214.314,169.514 212.324,171.692 211.268 C 172.631 210.813,173.105 210.431,172.745 210.420 C 172.385 210.409,171.215 210.985,170.145 211.700 M222.800 211.084 C 224.041 211.632,224.109 211.735,223.400 211.992 C 222.618 212.275,222.620 212.288,223.463 212.556 C 224.806 212.983,227.492 216.148,228.028 217.934 C 228.455 219.362,228.579 219.478,229.106 218.951 C 230.703 217.354,224.825 210.285,222.022 210.433 C 221.680 210.451,222.030 210.744,222.800 211.084 M173.800 211.600 C 173.091 211.905,173.125 211.947,174.100 211.972 L 175.200 212.000 175.200 221.400 C 175.200 230.681,175.189 230.800,174.360 230.800 C 171.865 230.800,167.959 227.272,167.204 224.336 C 166.564 221.852,166.467 221.668,166.432 222.881 C 166.329 226.384,170.987 231.200,174.478 231.200 L 176.000 231.200 176.000 221.680 C 176.000 211.104,175.910 210.693,173.800 211.600 M176.893 221.300 L 177.000 231.400 178.700 231.523 L 180.400 231.646 180.400 221.423 L 180.400 211.200 178.593 211.200 L 176.786 211.200 176.893 221.300 M214.580 211.708 C 214.473 211.987,214.433 216.532,214.493 221.808 L 214.600 231.400 216.400 231.400 L 218.200 231.400 218.307 221.300 L 218.414 211.200 216.594 211.200 C 215.493 211.200,214.698 211.400,214.580 211.708 M219.467 211.467 C 219.320 211.613,219.200 216.113,219.200 221.467 L 219.200 231.200 220.776 231.200 C 221.643 231.200,222.471 231.009,222.616 230.774 C 222.794 230.486,222.413 230.436,221.432 230.620 L 219.985 230.892 220.093 221.346 L 220.200 211.800 221.336 211.921 C 222.054 211.997,222.377 211.887,222.213 211.621 C 221.926 211.157,219.890 211.043,219.467 211.467 M169.904 213.592 C 168.015 215.255,166.372 218.149,166.440 219.696 C 166.466 220.297,166.661 220.022,167.021 218.878 C 167.858 216.215,169.156 214.410,171.141 213.151 C 172.140 212.518,172.677 212.000,172.335 212.000 C 171.993 212.000,170.899 212.716,169.904 213.592 M226.385 213.681 C 227.273 214.605,227.998 215.550,227.996 215.781 C 227.993 216.011,227.540 215.628,226.989 214.928 C 226.438 214.229,225.495 213.290,224.893 212.841 C 224.292 212.392,224.018 212.020,224.285 212.013 C 224.552 212.006,225.497 212.756,226.385 213.681 M159.589 214.660 C 157.890 215.795,156.000 217.731,156.000 218.338 C 156.000 218.657,156.407 218.307,156.905 217.559 C 157.403 216.812,158.483 215.870,159.305 215.467 C 160.127 215.064,160.800 214.569,160.800 214.367 C 160.800 213.878,160.738 213.893,159.589 214.660 M197.067 214.267 C 196.285 215.048,196.792 229.600,197.600 229.600 C 198.373 229.600,198.400 229.333,198.400 221.800 C 198.400 214.089,198.226 213.107,197.067 214.267 M198.000 221.776 C 198.000 225.996,197.842 228.850,197.600 229.000 C 197.339 229.161,197.200 226.737,197.200 222.024 C 197.200 217.475,197.348 214.800,197.600 214.800 C 197.851 214.800,198.000 217.392,198.000 221.776 M190.400 221.971 C 190.400 228.561,190.428 228.800,191.210 228.800 C 192.378 228.800,192.270 215.500,191.100 215.276 C 190.455 215.152,190.400 215.682,190.400 221.971 M199.200 216.390 C 199.200 216.642,199.380 216.736,199.600 216.600 C 199.859 216.440,200.000 218.270,200.000 221.800 C 200.000 225.330,199.859 227.160,199.600 227.000 C 199.380 226.864,199.200 227.033,199.200 227.376 C 199.200 228.327,199.955 228.120,200.208 227.100 C 200.648 225.326,200.230 216.275,199.700 216.099 C 199.425 216.008,199.200 216.139,199.200 216.390 M205.600 221.229 C 205.600 225.994,205.662 226.447,206.300 226.324 C 207.466 226.101,207.576 216.000,206.412 216.000 C 205.637 216.000,205.600 216.241,205.600 221.229 M164.267 216.667 C 164.120 216.813,164.011 217.308,164.025 217.767 C 164.049 218.533,164.082 218.523,164.434 217.642 C 164.826 216.663,164.744 216.189,164.267 216.667 M230.638 218.600 C 230.970 220.584,231.202 220.904,231.194 219.367 C 231.191 218.725,231.004 217.930,230.779 217.600 C 230.486 217.170,230.446 217.454,230.638 218.600 M164.968 219.831 C 164.820 220.618,164.880 222.013,165.102 222.931 C 165.486 224.525,165.506 224.462,165.552 221.500 C 165.604 218.154,165.395 217.556,164.968 219.831 M186.169 218.937 C 185.757 220.010,186.188 225.332,186.700 225.501 C 186.975 225.592,187.200 225.461,187.200 225.210 C 187.200 224.958,187.020 224.864,186.800 225.000 C 186.546 225.157,186.400 224.082,186.400 222.057 C 186.400 219.879,186.559 218.803,186.900 218.665 C 187.292 218.507,187.289 218.456,186.887 218.432 C 186.606 218.414,186.282 218.642,186.169 218.937 M163.507 220.053 C 163.406 220.743,163.457 221.868,163.620 222.553 C 163.858 223.550,163.926 223.298,163.959 221.300 C 164.003 218.600,163.802 218.044,163.507 220.053 M188.252 220.100 C 187.686 222.212,188.088 224.400,189.043 224.400 C 189.462 224.400,189.600 223.756,189.600 221.800 C 189.600 219.124,188.788 218.100,188.252 220.100 M192.643 219.833 C 191.902 221.762,192.727 225.721,193.594 224.400 C 194.326 223.285,194.017 219.200,193.200 219.200 C 193.027 219.200,192.776 219.485,192.643 219.833 M201.467 219.467 C 201.133 219.800,201.115 223.314,201.443 224.167 C 201.755 224.981,202.400 224.987,202.400 224.176 C 202.400 223.833,202.220 223.664,202.000 223.800 C 201.751 223.954,201.600 223.196,201.600 221.800 C 201.600 220.404,201.751 219.646,202.000 219.800 C 202.220 219.936,202.400 219.857,202.400 219.624 C 202.400 219.149,201.873 219.060,201.467 219.467 M155.709 221.200 C 155.709 222.190,155.787 222.595,155.882 222.100 C 155.978 221.605,155.978 220.795,155.882 220.300 C 155.787 219.805,155.709 220.210,155.709 221.200 M193.600 221.800 C 193.600 222.790,193.420 223.600,193.200 223.600 C 192.980 223.600,192.800 222.790,192.800 221.800 C 192.800 220.810,192.980 220.000,193.200 220.000 C 193.420 220.000,193.600 220.810,193.600 221.800 M208.867 221.700 C 208.830 222.745,208.620 223.600,208.400 223.600 C 208.180 223.600,208.000 223.870,208.000 224.200 C 208.000 225.149,208.760 224.897,209.020 223.862 C 209.150 223.346,209.183 222.221,209.095 221.362 C 208.940 219.854,208.932 219.866,208.867 221.700 M184.000 220.767 C 184.000 221.005,184.180 221.200,184.400 221.200 C 184.926 221.200,184.918 222.675,184.390 222.937 C 184.165 223.049,184.210 223.094,184.490 223.037 C 185.148 222.903,185.157 220.719,184.500 220.500 C 184.225 220.408,184.000 220.528,184.000 220.767 M203.616 220.981 C 202.970 221.759,203.243 222.959,204.105 223.125 C 204.660 223.232,204.800 222.972,204.800 221.829 C 204.800 220.312,204.405 220.030,203.616 220.981 M211.200 222.000 C 211.200 222.440,211.020 222.800,210.800 222.800 C 210.580 222.800,210.400 222.440,210.400 222.000 C 210.400 221.560,210.580 221.200,210.800 221.200 C 211.020 221.200,211.200 221.560,211.200 222.000 M230.854 222.600 C 230.819 223.040,230.689 223.850,230.567 224.400 C 230.375 225.263,230.407 225.303,230.798 224.690 C 231.047 224.299,231.177 223.489,231.086 222.890 C 230.978 222.179,230.897 222.079,230.854 222.600 M228.248 223.714 C 227.901 225.008,227.946 225.281,228.452 224.968 C 228.726 224.798,228.831 224.907,228.719 225.244 C 228.617 225.550,228.327 225.800,228.074 225.800 C 227.436 225.800,226.299 227.512,226.607 228.011 C 226.746 228.236,226.711 228.371,226.530 228.312 C 226.079 228.166,223.105 230.038,223.369 230.303 C 223.486 230.419,223.859 230.283,224.200 230.000 C 224.541 229.717,224.937 229.604,225.080 229.747 C 225.224 229.891,224.995 230.271,224.571 230.591 C 224.147 230.912,224.007 231.180,224.260 231.187 C 226.035 231.236,230.185 224.528,229.070 223.412 C 228.558 222.901,228.456 222.938,228.248 223.714 M238.323 224.801 C 237.132 226.883,233.600 228.427,233.065 227.100 C 232.944 226.801,232.850 226.882,232.832 227.300 C 232.807 227.836,233.119 228.000,234.161 228.000 C 235.646 228.000,239.472 225.008,239.160 224.090 C 239.072 223.830,238.696 224.150,238.323 224.801 M164.032 224.513 C 163.899 227.506,170.052 233.667,173.084 233.579 C 173.478 233.568,172.858 233.196,171.706 232.753 C 168.448 231.501,165.792 228.512,164.283 224.400 C 164.112 223.932,164.056 223.957,164.032 224.513 M165.600 225.098 C 165.600 226.737,170.799 231.993,172.400 231.972 C 172.730 231.968,172.365 231.629,171.588 231.218 C 169.917 230.334,166.400 226.689,166.400 225.841 C 166.400 225.514,166.220 225.136,166.000 225.000 C 165.780 224.864,165.600 224.908,165.600 225.098 M229.612 226.771 C 228.726 228.910,225.619 231.785,223.184 232.720 C 221.861 233.228,221.350 233.567,221.888 233.579 C 222.720 233.599,224.383 232.816,226.611 231.356 C 227.775 230.593,230.519 226.556,230.306 225.919 C 230.223 225.668,229.910 226.051,229.612 226.771 M173.624 232.423 C 174.314 232.860,181.602 232.930,181.596 232.500 C 181.594 232.335,179.670 232.168,177.320 232.129 C 174.622 232.085,173.260 232.193,173.624 232.423 " stroke="none" fill="#7b7b7b" fill-rule="evenodd"></path><path id="path1" d="M189.000 161.682 C 180.317 163.584,172.150 169.268,167.114 176.913 C 161.800 184.980,160.820 189.264,160.808 204.467 L 160.800 214.734 159.305 215.467 C 154.994 217.581,154.753 224.276,158.896 226.802 C 162.115 228.765,161.965 229.648,162.109 208.000 L 162.229 190.200 163.475 186.585 C 165.467 180.806,167.610 177.256,171.711 172.938 C 176.849 167.529,181.158 164.998,188.600 163.019 C 205.116 158.627,222.881 167.136,229.758 182.734 C 232.592 189.162,232.799 191.011,232.800 209.867 C 232.800 229.360,232.723 228.986,236.304 226.802 C 240.652 224.151,240.194 217.639,235.490 215.234 L 233.600 214.268 233.600 202.940 C 233.600 195.760,233.431 190.914,233.139 189.706 C 228.169 169.150,209.374 157.218,189.000 161.682 M172.800 209.349 C 163.744 212.355,161.081 223.418,167.796 230.133 C 170.541 232.877,173.008 233.653,178.549 233.513 L 183.000 233.400 183.112 222.000 C 183.256 207.367,183.756 208.791,178.492 208.842 C 176.132 208.865,173.570 209.093,172.800 209.349 M212.181 209.305 C 212.075 209.582,212.035 215.117,212.094 221.605 L 212.200 233.400 216.450 233.513 C 232.411 233.937,236.876 214.346,221.972 209.285 C 220.007 208.618,212.439 208.633,212.181 209.305 M181.600 221.200 L 181.600 232.800 178.100 232.794 C 169.357 232.779,163.427 226.392,165.219 218.921 C 166.672 212.864,171.168 209.720,178.500 209.636 L 181.600 209.600 181.600 221.200 M221.125 210.175 C 229.731 212.466,232.719 222.533,226.724 229.037 C 224.104 231.878,221.362 232.873,216.577 232.717 L 213.000 232.600 212.893 221.649 C 212.818 213.904,212.920 210.537,213.242 210.149 C 213.849 209.418,218.336 209.433,221.125 210.175 M195.206 221.724 C 195.202 229.572,195.337 233.563,195.600 233.400 C 196.130 233.073,196.130 211.220,195.600 210.400 C 195.345 210.005,195.210 213.878,195.206 221.724 M220.259 211.874 C 220.117 212.017,220.000 216.353,220.000 221.511 L 220.000 230.889 221.450 230.617 C 228.505 229.293,231.072 219.464,225.703 214.331 C 223.702 212.419,220.955 211.179,220.259 211.874 M171.141 213.151 C 164.704 217.233,165.621 227.747,172.647 230.418 C 175.304 231.428,175.200 231.794,175.200 221.400 L 175.200 212.000 174.078 212.000 C 173.461 212.000,172.140 212.518,171.141 213.151 M197.200 222.024 C 197.200 226.737,197.339 229.161,197.600 229.000 C 197.842 228.850,198.000 225.996,198.000 221.776 C 198.000 217.392,197.851 214.800,197.600 214.800 C 197.348 214.800,197.200 217.475,197.200 222.024 M199.467 216.667 C 199.033 217.101,199.157 226.726,199.600 227.000 C 199.859 227.160,200.000 225.337,200.000 221.824 C 200.000 218.841,199.940 216.400,199.867 216.400 C 199.793 216.400,199.613 216.520,199.467 216.667 M186.400 222.024 C 186.400 224.071,186.546 225.157,186.800 225.000 C 187.020 224.864,187.200 223.413,187.200 221.776 C 187.200 220.059,187.031 218.800,186.800 218.800 C 186.566 218.800,186.400 220.141,186.400 222.024 M201.600 221.800 C 201.600 223.196,201.751 223.954,202.000 223.800 C 202.220 223.664,202.400 222.764,202.400 221.800 C 202.400 220.836,202.220 219.936,202.000 219.800 C 201.751 219.646,201.600 220.404,201.600 221.800 M208.267 219.867 C 207.841 220.293,207.959 223.600,208.400 223.600 C 208.620 223.600,208.800 222.700,208.800 221.600 C 208.800 219.572,208.744 219.389,208.267 219.867 M192.800 221.800 C 192.800 222.790,192.980 223.600,193.200 223.600 C 193.420 223.600,193.600 222.790,193.600 221.800 C 193.600 220.810,193.420 220.000,193.200 220.000 C 192.980 220.000,192.800 220.810,192.800 221.800 M184.000 222.000 C 184.000 222.440,184.180 222.800,184.400 222.800 C 184.620 222.800,184.800 222.440,184.800 222.000 C 184.800 221.560,184.620 221.200,184.400 221.200 C 184.180 221.200,184.000 221.560,184.000 222.000 M210.400 222.000 C 210.400 222.440,210.580 222.800,210.800 222.800 C 211.020 222.800,211.200 222.440,211.200 222.000 C 211.200 221.560,211.020 221.200,210.800 221.200 C 210.580 221.200,210.400 221.560,210.400 222.000 " stroke="none" fill="#f8f8f8" fill-rule="evenodd"></path><path id="path2" d="M160.175 203.200 C 160.175 209.250,160.231 211.725,160.299 208.700 C 160.367 205.675,160.367 200.725,160.299 197.700 C 160.231 194.675,160.175 197.150,160.175 203.200 M183.760 215.000 C 183.761 218.300,183.822 219.597,183.898 217.882 C 183.973 216.167,183.972 213.467,183.897 211.882 C 183.821 210.297,183.759 211.700,183.760 215.000 M196.524 212.200 C 196.526 213.520,196.601 214.012,196.690 213.293 C 196.779 212.574,196.777 211.494,196.686 210.893 C 196.595 210.292,196.522 210.880,196.524 212.200 M180.975 221.400 C 180.975 227.340,181.031 229.826,181.099 226.924 C 181.167 224.022,181.167 219.162,181.099 216.124 C 181.031 213.086,180.975 215.460,180.975 221.400 M231.852 218.100 C 231.502 219.407,231.599 223.666,232.000 224.600 C 232.223 225.120,232.354 223.963,232.372 221.300 C 232.400 217.151,232.289 216.468,231.852 218.100 M162.800 218.200 C 162.800 218.530,162.980 218.800,163.200 218.800 C 163.420 218.800,163.600 218.530,163.600 218.200 C 163.600 217.870,163.420 217.600,163.200 217.600 C 162.980 217.600,162.800 217.870,162.800 218.200 M187.744 222.000 C 187.744 224.090,187.812 224.945,187.894 223.900 C 187.976 222.855,187.976 221.145,187.894 220.100 C 187.812 219.055,187.744 219.910,187.744 222.000 M202.928 221.600 C 202.928 223.030,203.001 223.615,203.089 222.900 C 203.178 222.185,203.178 221.015,203.089 220.300 C 203.001 219.585,202.928 220.170,202.928 221.600 M207.324 221.800 C 207.326 223.120,207.401 223.612,207.490 222.893 C 207.579 222.174,207.577 221.094,207.486 220.493 C 207.395 219.892,207.322 220.480,207.324 221.800 M165.693 221.200 C 165.693 221.970,165.775 222.285,165.876 221.900 C 165.976 221.515,165.976 220.885,165.876 220.500 C 165.775 220.115,165.693 220.430,165.693 221.200 M183.757 228.400 C 183.757 231.370,183.820 232.585,183.897 231.100 C 183.974 229.615,183.974 227.185,183.897 225.700 C 183.820 224.215,183.757 225.430,183.757 228.400 M162.800 224.400 C 162.800 224.840,162.980 225.200,163.200 225.200 C 163.420 225.200,163.600 224.840,163.600 224.400 C 163.600 223.960,163.420 223.600,163.200 223.600 C 162.980 223.600,162.800 223.960,162.800 224.400 M196.524 231.400 C 196.526 232.720,196.601 233.212,196.690 232.493 C 196.779 231.774,196.777 230.694,196.686 230.093 C 196.595 229.492,196.522 230.080,196.524 231.400 " stroke="none" fill="#141414" fill-rule="evenodd"></path><path id="path3" d="M195.700 160.294 C 196.745 160.376,198.455 160.376,199.500 160.294 C 200.545 160.212,199.690 160.144,197.600 160.144 C 195.510 160.144,194.655 160.212,195.700 160.294 M193.700 163.076 C 194.085 163.176,194.715 163.176,195.100 163.076 C 195.485 162.975,195.170 162.893,194.400 162.893 C 193.630 162.893,193.315 162.975,193.700 163.076 M199.700 163.076 C 200.085 163.176,200.715 163.176,201.100 163.076 C 201.485 162.975,201.170 162.893,200.400 162.893 C 199.630 162.893,199.315 162.975,199.700 163.076 M175.776 169.787 C 175.349 170.110,175.180 170.375,175.400 170.375 C 175.620 170.375,176.149 170.110,176.576 169.787 C 177.004 169.464,177.173 169.200,176.953 169.200 C 176.733 169.200,176.204 169.464,175.776 169.787 M168.801 172.998 C 168.286 173.548,167.939 174.064,168.032 174.146 C 168.124 174.228,168.619 173.778,169.130 173.147 C 170.276 171.735,170.074 171.644,168.801 172.998 M226.800 174.247 C 226.800 174.467,227.064 174.996,227.387 175.424 C 227.710 175.851,227.975 176.020,227.975 175.800 C 227.975 175.580,227.710 175.051,227.387 174.624 C 227.064 174.196,226.800 174.027,226.800 174.247 M162.711 205.020 C 162.772 211.939,162.952 217.600,163.111 217.600 C 163.483 217.601,163.259 193.099,162.883 192.723 C 162.727 192.567,162.650 198.100,162.711 205.020 M160.501 194.200 C 160.505 195.080,160.587 195.393,160.683 194.895 C 160.779 194.398,160.775 193.678,160.675 193.295 C 160.575 192.913,160.496 193.320,160.501 194.200 M232.175 206.600 C 232.175 212.540,232.231 215.026,232.299 212.124 C 232.367 209.222,232.367 204.362,232.299 201.324 C 232.231 198.286,232.175 200.660,232.175 206.600 M195.600 209.400 C 195.874 209.730,196.278 210.000,196.498 210.000 C 196.721 210.000,196.678 209.735,196.400 209.400 C 196.126 209.070,195.722 208.800,195.502 208.800 C 195.279 208.800,195.322 209.065,195.600 209.400 M183.200 221.721 L 183.200 233.975 178.500 234.108 L 173.800 234.241 178.743 234.221 L 183.686 234.200 183.655 222.046 C 183.638 215.361,183.529 209.796,183.412 209.679 C 183.296 209.562,183.200 214.981,183.200 221.721 M180.583 210.827 C 180.385 211.147,180.441 211.222,180.738 211.038 C 181.082 210.826,181.224 213.443,181.293 221.276 L 181.386 231.800 181.500 221.427 C 181.605 211.817,181.405 209.498,180.583 210.827 M196.055 222.100 C 196.025 228.645,196.135 234.000,196.300 233.999 C 196.731 233.998,196.861 215.898,196.452 212.800 C 196.205 210.926,196.094 213.522,196.055 222.100 M166.401 212.198 C 165.074 213.611,165.556 213.733,167.000 212.350 C 167.660 211.718,168.006 211.201,167.770 211.200 C 167.533 211.200,166.917 211.649,166.401 212.198 M170.875 212.016 C 170.394 212.464,170.000 212.700,170.000 212.541 C 170.000 210.924,166.447 216.363,165.845 218.900 C 165.443 220.598,165.815 220.204,166.600 218.100 C 166.990 217.055,167.542 215.930,167.826 215.600 C 168.110 215.270,168.319 214.910,168.290 214.800 C 168.191 214.430,169.740 212.839,170.026 213.016 C 170.182 213.112,170.532 212.923,170.804 212.596 C 171.076 212.268,171.546 212.000,171.849 212.000 C 172.152 212.000,172.400 211.820,172.400 211.600 C 172.400 210.972,171.828 211.128,170.875 212.016 M189.600 216.767 C 189.600 217.628,189.400 218.400,189.156 218.481 C 188.867 218.578,188.916 218.798,189.294 219.112 C 189.791 219.524,189.887 219.272,189.949 217.398 C 189.988 216.189,189.926 215.200,189.810 215.200 C 189.695 215.200,189.600 215.905,189.600 216.767 M199.100 215.757 C 198.278 216.381,198.012 227.200,198.819 227.200 C 199.094 227.200,199.217 225.308,199.175 221.700 C 199.120 216.932,199.198 216.183,199.756 216.071 C 200.110 216.000,200.400 216.165,200.400 216.437 C 200.400 216.710,200.494 216.839,200.609 216.724 C 201.451 215.883,200.086 215.008,199.100 215.757 M204.924 218.600 C 204.926 219.920,205.001 220.412,205.090 219.693 C 205.179 218.974,205.177 217.894,205.086 217.293 C 204.995 216.692,204.922 217.280,204.924 218.600 M185.600 218.280 C 185.600 218.809,185.707 218.853,186.080 218.480 C 187.025 217.535,187.200 218.053,187.200 221.800 C 187.200 224.911,187.091 225.600,186.600 225.600 C 186.270 225.600,186.000 225.390,186.000 225.133 C 186.000 224.877,185.906 224.761,185.791 224.876 C 185.322 225.345,186.146 226.435,186.883 226.321 C 187.876 226.167,188.236 218.176,187.267 217.804 C 186.254 217.416,185.600 217.603,185.600 218.280 M192.233 219.057 C 192.095 219.419,192.075 219.809,192.191 219.924 C 192.306 220.039,192.400 219.923,192.400 219.667 C 192.400 219.410,192.760 219.200,193.200 219.200 C 193.640 219.200,194.000 219.410,194.000 219.667 C 194.000 219.923,194.094 220.039,194.209 219.924 C 194.628 219.505,193.896 218.400,193.200 218.400 C 192.807 218.400,192.372 218.696,192.233 219.057 M200.900 218.658 C 200.285 218.915,200.190 224.800,200.800 224.800 C 201.029 224.800,201.200 223.592,201.200 221.975 C 201.200 219.396,201.268 219.161,201.982 219.275 C 202.412 219.344,202.817 219.220,202.882 219.000 C 203.012 218.558,201.686 218.329,200.900 218.658 M207.453 219.005 C 207.271 219.479,207.435 219.556,208.211 219.362 C 209.029 219.156,209.200 219.259,209.200 219.957 C 209.200 220.836,209.773 221.090,210.200 220.400 C 210.336 220.180,210.269 220.000,210.051 220.000 C 209.832 220.000,209.540 219.640,209.400 219.200 C 209.102 218.262,207.789 218.130,207.453 219.005 M162.800 221.200 C 162.800 222.520,162.938 223.600,163.107 223.600 C 163.275 223.600,163.413 222.520,163.413 221.200 C 163.413 219.880,163.275 218.800,163.107 218.800 C 162.938 218.800,162.800 219.880,162.800 221.200 M239.720 221.200 C 239.720 222.410,239.795 222.905,239.887 222.300 C 239.978 221.695,239.978 220.705,239.887 220.100 C 239.795 219.495,239.720 219.990,239.720 221.200 M228.800 221.200 C 228.800 222.080,228.980 222.800,229.200 222.800 C 229.420 222.800,229.600 222.080,229.600 221.200 C 229.600 220.320,229.420 219.600,229.200 219.600 C 228.980 219.600,228.800 220.320,228.800 221.200 M185.197 221.778 C 185.345 222.755,185.361 223.544,185.233 223.530 C 184.547 223.456,184.000 223.640,184.000 223.945 C 184.000 224.134,184.450 224.203,185.000 224.098 C 186.153 223.878,186.591 220.000,185.463 220.000 C 185.055 220.000,184.991 220.423,185.197 221.778 M202.514 221.800 C 202.517 222.900,202.595 223.303,202.687 222.695 C 202.779 222.086,202.777 221.186,202.682 220.695 C 202.587 220.203,202.511 220.700,202.514 221.800 M207.714 221.800 C 207.717 222.900,207.795 223.303,207.887 222.695 C 207.979 222.086,207.977 221.186,207.882 220.695 C 207.787 220.203,207.711 220.700,207.714 221.800 M166.054 221.067 C 166.025 221.544,165.896 222.264,165.770 222.667 C 165.552 223.361,165.564 223.362,165.996 222.688 C 166.247 222.297,166.375 221.577,166.281 221.088 C 166.109 220.201,166.109 220.201,166.054 221.067 M204.723 223.300 C 204.634 223.575,204.681 224.430,204.828 225.200 C 205.083 226.540,205.097 226.519,205.147 224.700 C 205.199 222.831,205.043 222.316,204.723 223.300 M209.084 224.000 C 208.969 224.440,209.038 224.800,209.237 224.800 C 209.437 224.800,209.600 224.620,209.600 224.400 C 209.600 224.180,210.095 223.987,210.700 223.972 C 211.675 223.947,211.709 223.905,211.000 223.600 C 209.731 223.055,209.308 223.143,209.084 224.000 M189.728 226.400 C 189.728 227.830,189.801 228.415,189.889 227.700 C 189.978 226.985,189.978 225.815,189.889 225.100 C 189.801 224.385,189.728 224.970,189.728 226.400 M192.167 224.533 C 192.295 224.936,192.400 225.341,192.400 225.433 C 192.400 225.917,193.950 225.506,194.157 224.967 C 194.561 223.916,194.408 223.755,193.787 224.576 C 193.206 225.345,193.194 225.345,192.567 224.576 C 191.988 223.866,191.954 223.862,192.167 224.533 M232.093 226.400 C 232.093 227.170,232.175 227.485,232.276 227.100 C 232.376 226.715,232.376 226.085,232.276 225.700 C 232.175 225.315,232.093 225.630,232.093 226.400 M165.600 229.130 C 165.600 229.312,166.079 229.897,166.663 230.430 L 167.727 231.400 166.788 230.100 C 165.812 228.748,165.600 228.575,165.600 229.130 M172.964 231.542 C 173.102 231.764,173.753 231.931,174.413 231.912 C 175.891 231.870,175.700 231.609,173.995 231.340 C 173.190 231.213,172.807 231.288,172.964 231.542 M214.115 234.296 C 215.388 234.376,217.368 234.375,218.515 234.294 C 219.662 234.214,218.620 234.149,216.200 234.150 C 213.780 234.151,212.842 234.216,214.115 234.296 " stroke="none" fill="#3c3c3c" fill-rule="evenodd"></path><path id="path4" d="M194.518 159.898 C 196.233 159.973,198.933 159.972,200.518 159.897 C 202.103 159.821,200.700 159.759,197.400 159.760 C 194.100 159.761,192.803 159.822,194.518 159.898 M188.400 160.304 C 187.457 160.488,187.446 160.520,188.200 160.857 C 188.812 161.131,188.672 161.179,187.600 161.061 C 185.916 160.876,185.101 161.116,185.457 161.693 C 185.628 161.969,185.383 162.032,184.756 161.875 C 183.655 161.599,182.347 162.141,183.266 162.493 C 183.745 162.676,185.265 162.328,189.028 161.176 C 189.704 160.969,190.694 160.787,191.228 160.772 C 192.129 160.746,192.141 160.719,191.400 160.400 C 190.528 160.025,189.927 160.006,188.400 160.304 M198.400 160.383 L 192.200 160.612 198.800 160.842 C 202.430 160.968,206.152 161.254,207.072 161.477 C 207.991 161.700,208.956 161.751,209.217 161.590 C 209.927 161.151,208.881 160.876,207.200 161.061 C 206.089 161.183,205.965 161.136,206.600 160.835 C 207.153 160.573,207.215 160.446,206.800 160.423 C 206.470 160.404,205.840 160.336,205.400 160.272 C 204.960 160.207,201.810 160.257,198.400 160.383 M209.800 162.000 C 209.109 162.297,209.096 162.348,209.705 162.372 C 210.093 162.387,210.723 162.559,211.105 162.753 C 211.487 162.948,212.340 163.346,213.000 163.639 C 213.660 163.932,214.728 164.528,215.372 164.964 C 216.017 165.400,216.411 165.542,216.249 165.279 C 216.086 165.015,216.100 164.800,216.280 164.800 C 216.460 164.800,216.832 165.160,217.107 165.600 C 217.382 166.040,217.976 166.400,218.427 166.400 C 218.878 166.400,219.143 166.569,219.015 166.775 C 218.888 166.981,219.552 167.685,220.492 168.339 C 222.305 169.601,225.041 172.340,226.149 174.000 C 226.515 174.550,227.037 175.000,227.308 175.000 C 227.578 175.000,227.858 175.412,227.930 175.915 C 228.001 176.419,228.406 177.047,228.830 177.311 C 229.253 177.576,229.600 177.940,229.600 178.120 C 229.600 178.300,229.375 178.312,229.100 178.147 C 228.715 177.916,228.718 177.992,229.111 178.478 C 229.393 178.825,230.046 179.946,230.564 180.968 C 231.257 182.338,231.570 182.656,231.753 182.177 C 232.051 181.402,231.696 180.693,231.173 181.017 C 230.968 181.143,230.846 180.831,230.901 180.323 C 230.966 179.717,230.812 179.440,230.451 179.516 C 230.114 179.588,229.988 179.408,230.124 179.053 C 230.827 177.222,219.843 165.114,218.090 165.787 C 217.797 165.899,217.664 165.819,217.794 165.610 C 218.094 165.124,214.386 163.246,213.644 163.508 C 213.305 163.627,213.197 163.528,213.368 163.252 C 213.653 162.790,213.221 162.658,211.800 162.772 C 211.205 162.819,211.136 162.743,211.534 162.474 C 211.971 162.177,211.187 161.411,210.667 161.628 C 210.630 161.644,210.240 161.811,209.800 162.000 M181.553 162.700 C 181.527 162.865,181.526 163.133,181.551 163.295 C 181.576 163.457,181.192 163.547,180.698 163.495 C 180.115 163.433,179.841 163.592,179.916 163.949 C 179.993 164.310,179.809 164.412,179.380 164.248 C 178.477 163.901,177.766 164.394,178.457 164.888 C 178.861 165.176,178.809 165.213,178.255 165.033 C 176.790 164.556,170.371 170.038,166.831 174.789 C 165.202 176.976,165.040 177.324,165.179 178.340 C 165.220 178.637,165.068 178.766,164.841 178.625 C 164.226 178.245,162.404 182.099,162.657 183.242 C 162.806 183.915,162.757 184.041,162.490 183.666 C 161.924 182.869,161.527 184.155,161.987 185.300 C 162.268 185.997,162.355 186.041,162.375 185.495 C 162.389 185.107,162.560 184.477,162.756 184.095 C 162.952 183.713,163.529 182.500,164.038 181.400 C 164.548 180.300,165.277 178.937,165.658 178.372 C 166.040 177.806,166.408 177.086,166.476 176.772 C 166.544 176.457,166.915 175.965,167.300 175.677 C 167.685 175.390,168.000 174.794,168.000 174.354 C 168.000 173.913,168.152 173.647,168.339 173.762 C 168.525 173.877,169.189 173.438,169.814 172.786 C 170.438 172.134,170.819 171.600,170.659 171.600 C 170.499 171.600,170.601 171.347,170.884 171.038 C 171.168 170.729,171.503 170.504,171.628 170.538 C 171.754 170.572,172.910 169.655,174.198 168.500 C 175.485 167.345,176.698 166.400,176.893 166.400 C 177.088 166.400,177.136 166.220,177.000 166.000 C 176.862 165.777,177.169 165.600,177.696 165.600 C 178.215 165.600,178.814 165.426,179.027 165.213 C 179.241 164.999,180.272 164.391,181.321 163.860 C 182.714 163.155,183.053 162.829,182.580 162.648 C 181.749 162.329,181.610 162.336,181.553 162.700 M194.581 162.858 C 196.205 163.066,198.534 163.066,200.181 162.859 C 202.757 162.534,202.516 162.503,197.400 162.502 C 192.312 162.501,192.054 162.534,194.581 162.858 M190.000 163.061 C 187.646 163.412,183.572 164.952,184.147 165.274 C 184.859 165.673,186.087 165.264,185.761 164.737 C 185.632 164.529,185.948 164.396,186.464 164.441 C 188.463 164.619,189.495 164.389,188.600 163.965 C 187.974 163.668,188.112 163.623,189.231 163.756 C 190.018 163.850,191.278 163.782,192.031 163.605 C 192.784 163.427,193.100 163.263,192.733 163.241 C 192.366 163.218,191.826 163.135,191.533 163.056 C 191.240 162.977,190.550 162.979,190.000 163.061 M202.400 163.222 C 201.190 163.583,202.541 163.789,205.400 163.678 C 206.568 163.633,206.787 163.705,206.211 163.945 C 205.503 164.239,205.538 164.295,206.551 164.489 C 208.610 164.882,209.510 164.353,207.746 163.786 C 205.561 163.084,203.565 162.873,202.400 163.222 M209.211 164.793 C 208.498 165.234,209.919 165.685,210.680 165.259 C 211.194 164.971,211.164 164.884,210.490 164.708 C 210.049 164.592,209.474 164.631,209.211 164.793 M181.147 166.152 C 178.393 167.556,175.993 169.265,176.232 169.652 C 176.352 169.846,176.124 170.119,175.725 170.258 C 174.728 170.606,170.400 174.855,170.400 175.487 C 170.400 175.769,170.265 175.955,170.100 175.900 C 169.935 175.845,169.746 175.926,169.679 176.080 C 169.612 176.234,169.027 176.928,168.379 177.623 C 167.726 178.321,167.186 179.357,167.168 179.942 C 167.151 180.524,167.038 180.751,166.917 180.446 C 166.777 180.093,166.440 180.448,165.990 181.421 C 165.009 183.543,165.486 184.590,166.505 182.554 C 168.630 178.312,173.067 172.950,176.904 169.988 C 177.511 169.519,177.912 168.981,177.795 168.792 C 177.678 168.603,177.902 168.466,178.291 168.488 C 179.285 168.544,182.052 166.807,181.749 166.318 C 181.599 166.075,181.798 166.007,182.250 166.148 C 183.210 166.447,184.365 165.826,183.481 165.486 C 183.158 165.362,182.108 165.662,181.147 166.152 M211.262 165.562 C 210.611 165.964,213.395 167.242,214.293 166.952 C 214.829 166.780,214.869 166.818,214.457 167.112 C 213.746 167.620,214.489 168.094,215.430 167.733 C 215.890 167.556,216.037 167.616,215.857 167.907 C 215.705 168.153,216.061 168.673,216.655 169.075 C 218.545 170.354,223.647 175.345,224.868 177.108 C 225.551 178.096,226.237 178.701,226.493 178.543 C 226.771 178.371,226.849 178.495,226.702 178.877 C 226.574 179.212,226.789 179.974,227.181 180.571 C 227.713 181.382,227.949 181.510,228.116 181.076 C 228.463 180.171,223.430 173.011,222.745 173.434 C 222.544 173.558,222.430 173.421,222.490 173.130 C 222.551 172.838,222.375 172.645,222.100 172.700 C 221.825 172.755,221.645 172.575,221.700 172.300 C 221.755 172.025,221.562 171.849,221.270 171.910 C 220.979 171.970,220.846 171.849,220.975 171.640 C 221.267 171.167,219.137 169.611,218.138 169.568 C 217.669 169.548,217.593 169.460,217.929 169.325 C 218.474 169.108,217.096 168.017,214.364 166.502 C 212.424 165.426,211.792 165.234,211.262 165.562 M228.317 181.659 C 228.028 182.444,228.396 183.250,228.902 182.937 C 229.178 182.766,229.243 182.911,229.081 183.334 C 228.767 184.152,229.152 185.277,229.641 184.974 C 229.838 184.853,229.971 185.079,229.936 185.477 C 229.790 187.164,229.986 187.836,230.440 187.200 C 230.768 186.740,230.818 186.891,230.654 187.847 C 230.537 188.533,230.596 189.613,230.786 190.247 C 231.124 191.377,231.133 191.380,231.208 190.400 C 231.341 188.673,231.147 187.015,230.766 186.620 C 230.565 186.411,230.390 185.961,230.377 185.620 C 230.337 184.556,228.531 181.081,228.317 181.659 M231.960 182.800 C 231.871 183.818,232.063 184.981,232.389 185.400 C 232.723 185.831,233.075 187.426,233.534 190.600 L 233.823 192.600 234.060 190.721 C 234.363 188.314,234.038 186.226,233.544 187.411 C 233.277 188.053,233.226 187.977,233.268 187.000 C 233.369 184.696,233.238 184.129,232.762 184.800 C 232.427 185.271,232.382 185.184,232.551 184.397 C 232.670 183.845,232.597 183.125,232.389 182.797 C 232.056 182.269,232.006 182.269,231.960 182.800 M164.073 186.281 C 163.163 189.111,163.002 190.185,163.184 192.200 C 163.285 193.322,163.312 193.296,163.608 191.800 C 163.781 190.920,163.835 189.660,163.728 189.000 C 163.577 188.073,163.630 187.936,163.960 188.400 C 164.432 189.063,164.609 188.352,164.441 186.464 C 164.396 185.948,164.529 185.632,164.737 185.761 C 165.264 186.087,165.673 184.859,165.274 184.147 C 165.046 183.740,164.683 184.385,164.073 186.281 M161.089 185.981 C 160.954 186.497,160.927 187.477,161.030 188.159 C 161.168 189.083,161.128 189.200,160.874 188.619 C 160.382 187.493,159.923 189.941,160.296 191.700 L 160.571 193.000 160.860 191.400 C 161.018 190.520,161.309 189.070,161.506 188.177 C 161.914 186.330,161.529 184.301,161.089 185.981 M231.557 191.233 C 231.534 191.985,231.542 197.730,231.577 204.000 C 231.611 210.270,231.487 215.940,231.302 216.600 C 231.116 217.260,231.069 218.430,231.198 219.200 C 231.410 220.474,231.456 220.383,231.712 218.200 C 232.066 215.177,232.188 190.454,231.850 190.117 C 231.713 189.979,231.581 190.482,231.557 191.233 M234.377 191.600 C 233.967 194.848,234.473 214.400,234.967 214.400 C 235.236 214.400,236.246 215.075,237.212 215.900 C 238.177 216.725,238.829 217.175,238.660 216.900 C 238.478 216.604,238.554 216.400,238.846 216.400 C 239.118 216.400,238.916 215.949,238.397 215.396 C 237.755 214.713,237.206 214.471,236.677 214.639 C 236.165 214.802,235.993 214.735,236.174 214.443 C 236.405 214.068,236.020 213.861,235.200 213.920 C 235.090 213.928,235.048 209.674,235.106 204.467 C 235.207 195.422,234.800 188.247,234.377 191.600 M159.600 203.200 C 159.600 210.535,159.464 214.000,159.176 214.000 C 158.943 214.000,158.876 214.199,159.026 214.443 C 159.207 214.735,159.035 214.802,158.523 214.639 C 157.994 214.471,157.445 214.713,156.803 215.396 C 156.284 215.949,156.082 216.400,156.354 216.400 C 156.637 216.400,156.720 216.606,156.549 216.882 C 156.385 217.147,157.095 216.659,158.126 215.797 L 160.000 214.231 160.000 203.315 C 160.000 197.312,159.910 192.400,159.800 192.400 C 159.690 192.400,159.600 197.260,159.600 203.200 M162.490 210.076 C 162.432 221.386,162.257 227.641,161.993 227.804 C 161.770 227.942,161.691 228.224,161.819 228.431 C 162.839 230.082,162.993 227.199,162.790 210.200 L 162.580 192.600 162.490 210.076 M160.572 204.800 C 160.572 209.970,160.629 212.085,160.699 209.500 C 160.768 206.915,160.768 202.685,160.699 200.100 C 160.629 197.515,160.572 199.630,160.572 204.800 M232.435 211.900 C 232.350 220.535,232.262 227.824,232.240 228.098 C 232.205 228.531,233.585 228.649,236.124 228.428 C 236.302 228.413,236.324 228.201,236.174 227.957 C 235.993 227.665,236.165 227.598,236.677 227.761 C 237.206 227.929,237.755 227.687,238.397 227.004 C 238.916 226.451,239.118 226.000,238.846 226.000 C 238.554 226.000,238.478 225.796,238.660 225.500 C 238.829 225.225,238.177 225.675,237.212 226.500 C 235.951 227.577,235.083 228.000,234.133 228.000 L 232.809 228.000 232.700 212.100 L 232.591 196.200 232.435 211.900 M174.800 207.510 C 172.006 207.872,174.879 208.310,178.642 208.096 C 181.061 207.959,182.375 208.036,182.555 208.327 C 182.704 208.568,183.111 208.656,183.460 208.522 C 185.739 207.647,179.429 206.909,174.800 207.510 M211.675 208.016 C 210.868 208.768,210.800 209.210,210.794 213.716 C 210.788 218.500,210.375 220.643,209.766 219.055 C 209.484 218.320,208.812 218.844,208.812 219.800 C 208.812 220.020,208.944 219.995,209.106 219.744 C 209.319 219.415,209.544 219.444,209.920 219.849 C 210.350 220.312,210.332 220.451,209.820 220.648 C 209.161 220.900,208.929 223.200,209.563 223.200 C 209.762 223.200,209.831 222.839,209.715 222.398 C 209.464 221.435,210.314 220.282,211.064 220.569 C 211.497 220.735,211.600 219.629,211.600 214.802 C 211.600 207.694,211.481 207.858,216.552 208.021 C 221.004 208.165,222.286 208.009,220.200 207.577 C 216.935 206.902,212.633 207.123,211.675 208.016 M171.698 208.276 C 171.421 208.382,171.314 208.661,171.460 208.897 C 171.631 209.173,171.420 209.246,170.869 209.102 C 169.127 208.647,164.205 213.114,165.011 214.418 C 165.148 214.639,165.021 214.770,164.730 214.710 C 164.388 214.639,164.244 214.919,164.325 215.497 C 164.418 216.170,164.294 216.334,163.826 216.155 C 163.311 215.957,163.247 216.147,163.459 217.258 C 163.769 218.885,164.000 219.235,164.000 218.079 C 164.000 217.609,164.360 216.583,164.800 215.800 C 165.240 215.017,165.603 213.976,165.606 213.488 C 165.611 212.748,165.684 212.700,166.044 213.200 C 166.415 213.716,166.446 213.707,166.265 213.138 C 166.025 212.384,167.146 211.200,168.098 211.200 C 168.448 211.200,168.793 211.065,168.867 210.900 C 169.123 210.322,172.485 208.800,173.504 208.800 C 174.070 208.800,174.458 208.735,174.367 208.656 C 174.016 208.354,172.177 208.092,171.698 208.276 M221.200 208.400 L 220.200 208.720 221.280 208.760 C 222.294 208.798,225.255 210.255,227.047 211.600 C 228.158 212.434,230.395 215.791,230.425 216.672 C 230.445 217.244,230.531 217.199,230.826 216.463 C 231.238 215.434,230.973 214.646,230.346 215.034 C 230.122 215.172,230.002 214.955,230.073 214.540 C 230.150 214.093,229.991 213.843,229.670 213.910 C 229.369 213.972,229.259 213.828,229.416 213.574 C 229.814 212.930,226.921 210.095,224.713 208.965 C 222.677 207.923,222.685 207.925,221.200 208.400 M194.096 209.595 C 193.792 210.082,193.600 211.859,193.600 214.195 C 193.600 216.465,193.439 218.000,193.200 218.000 C 192.980 218.000,192.797 217.415,192.794 216.700 C 192.787 215.300,192.061 213.648,191.959 214.800 C 191.929 215.130,191.941 215.579,191.985 215.798 C 192.029 216.017,192.059 217.947,192.052 220.086 C 192.044 222.226,192.164 224.054,192.319 224.150 C 192.474 224.246,192.577 222.991,192.549 221.362 C 192.504 218.784,192.588 218.400,193.200 218.400 C 193.812 218.400,193.896 218.784,193.851 221.362 C 193.823 222.991,193.950 224.231,194.134 224.117 C 194.318 224.004,194.432 222.896,194.386 221.655 C 194.160 215.429,194.412 210.446,194.981 209.876 C 195.300 209.557,195.450 209.184,195.314 209.048 C 194.901 208.635,194.616 208.763,194.096 209.595 M184.130 214.879 C 184.118 219.230,184.232 220.403,184.679 220.575 C 184.989 220.694,185.132 220.613,184.997 220.395 C 184.863 220.178,185.033 220.000,185.376 220.000 C 185.719 220.000,186.000 219.736,186.000 219.414 C 186.000 219.092,186.383 218.623,186.851 218.373 C 187.862 217.832,188.392 218.393,188.147 219.744 C 188.053 220.260,188.096 220.361,188.256 220.000 C 188.401 219.670,188.688 219.290,188.894 219.156 C 189.379 218.838,187.289 217.191,186.446 217.228 C 185.895 217.252,185.903 217.297,186.499 217.533 C 187.143 217.788,187.136 217.848,186.399 218.308 C 185.759 218.707,185.598 218.706,185.588 218.303 C 185.581 218.027,185.356 218.160,185.088 218.600 C 184.681 219.267,184.562 218.567,184.372 214.400 L 184.144 209.400 184.130 214.879 M196.917 212.047 C 196.920 214.035,197.005 214.271,197.660 214.100 C 198.247 213.947,198.408 214.143,198.440 215.053 C 198.480 216.199,198.480 216.199,198.791 215.200 C 199.033 214.420,198.899 214.011,198.179 213.344 C 197.672 212.873,197.180 211.883,197.086 211.144 C 196.986 210.359,196.916 210.735,196.917 212.047 M174.600 210.800 C 175.480 210.958,175.939 211.112,175.620 211.143 C 175.169 211.187,175.147 211.307,175.520 211.680 C 176.375 212.535,176.187 231.200,175.324 231.200 C 174.734 231.200,174.746 231.275,175.424 231.787 C 175.892 232.142,177.116 232.380,178.511 232.387 L 180.822 232.400 180.787 221.400 L 180.753 210.400 176.876 210.457 C 173.962 210.499,173.397 210.585,174.600 210.800 M213.600 221.400 L 213.600 232.400 216.100 232.386 C 218.315 232.373,221.930 231.255,219.887 231.214 C 219.218 231.201,219.180 230.567,219.287 221.200 C 219.359 214.799,219.256 211.142,219.000 211.040 C 218.780 210.952,219.252 210.911,220.049 210.949 C 220.847 210.987,221.784 211.255,222.132 211.543 C 222.480 211.832,222.941 211.960,223.157 211.827 C 223.372 211.694,224.550 212.562,225.774 213.758 C 228.106 216.034,228.738 216.271,226.884 214.174 C 225.564 212.682,223.396 211.137,223.074 211.459 C 222.944 211.589,222.547 211.404,222.190 211.048 C 221.681 210.538,220.698 210.400,217.571 210.400 L 213.600 210.400 213.600 221.400 M180.400 221.423 L 180.400 231.646 178.700 231.523 L 177.000 231.400 176.893 221.300 L 176.786 211.200 178.593 211.200 L 180.400 211.200 180.400 221.423 M218.307 221.300 L 218.200 231.400 216.400 231.400 L 214.600 231.400 214.493 221.808 C 214.367 210.609,214.250 211.200,216.594 211.200 L 218.414 211.200 218.307 221.300 M190.141 214.500 C 189.945 214.775,189.800 218.226,189.819 222.169 L 189.855 229.338 190.816 229.409 C 192.095 229.503,192.800 228.728,192.800 227.229 C 192.800 226.553,192.980 226.000,193.200 226.000 C 193.439 226.000,193.600 227.533,193.600 229.800 C 193.600 234.878,194.460 236.023,196.800 234.059 C 196.910 233.966,196.510 233.979,195.912 234.088 C 195.314 234.196,194.919 234.130,195.036 233.942 C 195.152 233.754,195.057 233.600,194.824 233.600 C 194.552 233.600,194.389 231.981,194.368 229.100 C 194.351 226.625,194.246 224.825,194.135 225.100 C 194.024 225.375,193.603 225.600,193.200 225.600 C 192.797 225.600,192.376 225.375,192.265 225.100 C 192.154 224.825,192.049 225.545,192.032 226.700 C 192.004 228.523,191.894 228.800,191.200 228.800 C 190.431 228.800,190.400 228.533,190.400 222.000 C 190.400 217.481,190.542 215.200,190.824 215.200 C 191.057 215.200,191.145 215.035,191.021 214.834 C 190.897 214.633,191.021 214.377,191.298 214.266 C 191.620 214.136,191.567 214.052,191.149 214.032 C 190.791 214.014,190.337 214.225,190.141 214.500 M200.260 215.787 C 200.122 216.147,200.176 216.338,200.381 216.212 C 200.598 216.077,200.658 216.567,200.524 217.391 C 200.289 218.836,200.549 219.079,201.600 218.400 C 202.000 218.142,202.033 218.010,201.700 218.006 C 201.425 218.003,201.197 217.595,201.194 217.100 C 201.185 215.783,200.585 214.940,200.260 215.787 M205.166 215.525 C 204.983 217.028,205.150 226.796,205.365 227.143 C 205.520 227.394,205.952 227.586,206.324 227.568 C 206.744 227.549,206.810 227.460,206.498 227.334 C 206.221 227.223,206.097 226.967,206.221 226.766 C 206.345 226.565,206.257 226.400,206.024 226.400 C 205.747 226.400,205.600 224.593,205.600 221.200 C 205.600 216.267,205.641 216.000,206.400 216.000 C 207.068 216.000,207.200 216.267,207.200 217.616 C 207.200 218.939,207.296 219.142,207.729 218.737 C 208.307 218.198,208.134 216.469,207.436 215.793 C 206.939 215.312,205.217 215.109,205.166 215.525 M155.486 217.047 C 155.350 217.183,155.324 217.858,155.427 218.547 C 155.579 219.555,155.541 219.644,155.236 219.000 C 154.959 218.417,154.856 219.012,154.856 221.200 C 154.856 223.321,154.963 223.966,155.220 223.400 C 155.511 222.760,155.566 222.880,155.492 224.000 C 155.427 224.985,155.557 225.367,155.930 225.290 C 156.224 225.229,156.340 225.374,156.191 225.615 C 155.504 226.727,158.996 229.015,160.474 228.422 C 161.377 228.060,161.378 228.050,160.539 228.025 C 160.065 228.011,158.805 227.210,157.739 226.244 L 155.800 224.489 155.852 220.644 C 155.881 218.530,155.866 216.800,155.819 216.800 C 155.772 216.800,155.622 216.911,155.486 217.047 M239.200 221.200 C 239.200 223.693,239.312 225.622,239.448 225.485 C 239.584 225.349,239.696 223.421,239.696 221.200 C 239.696 218.979,239.584 217.051,239.448 216.915 C 239.312 216.778,239.200 218.707,239.200 221.200 M165.656 218.400 C 165.656 218.730,165.811 219.360,166.000 219.800 C 166.217 220.304,166.344 220.378,166.344 220.000 C 166.344 219.670,166.189 219.040,166.000 218.600 C 165.783 218.096,165.656 218.022,165.656 218.400 M240.134 221.200 C 240.134 222.850,240.205 223.525,240.291 222.700 C 240.378 221.875,240.378 220.525,240.291 219.700 C 240.205 218.875,240.134 219.550,240.134 221.200 M203.944 219.067 C 203.552 219.172,203.310 219.613,203.344 220.162 C 203.391 220.934,203.513 221.011,204.100 220.645 C 204.631 220.313,205.198 218.616,204.700 218.846 C 204.645 218.872,204.305 218.971,203.944 219.067 M165.757 223.429 C 165.467 224.582,166.112 225.590,166.617 224.773 C 166.824 224.438,166.760 224.378,166.419 224.588 C 166.035 224.826,165.980 224.602,166.189 223.650 C 166.518 222.154,166.127 221.954,165.757 223.429 M231.246 222.972 C 231.091 225.574,228.332 230.225,226.094 231.659 C 223.098 233.577,222.837 233.631,217.200 233.513 L 211.800 233.400 211.687 228.700 L 211.575 224.000 210.487 224.046 C 209.810 224.075,209.664 224.162,210.100 224.276 C 210.716 224.437,210.804 225.043,210.832 229.329 C 210.849 232.008,210.956 233.967,211.070 233.683 C 211.209 233.338,211.433 233.296,211.745 233.554 C 212.002 233.768,214.640 233.969,217.606 234.001 C 224.269 234.074,224.100 234.085,223.800 233.601 C 223.658 233.370,223.944 233.243,224.477 233.301 C 225.027 233.360,225.361 233.204,225.305 232.914 C 225.252 232.647,225.456 232.524,225.758 232.639 C 226.611 232.966,230.470 228.852,230.177 227.928 C 230.020 227.432,230.118 227.217,230.470 227.290 C 230.833 227.365,230.969 227.021,230.902 226.200 L 230.804 225.000 231.369 226.200 C 231.921 227.370,231.935 227.375,231.944 226.400 C 231.956 225.125,231.308 221.940,231.246 222.972 M203.587 223.385 C 203.907 223.770,203.867 223.965,203.436 224.131 C 203.115 224.254,202.764 224.140,202.657 223.878 C 202.551 223.615,202.449 223.715,202.432 224.100 C 202.398 224.842,201.600 225.102,201.600 224.371 C 201.600 224.136,201.330 224.213,201.000 224.543 C 200.670 224.873,200.400 225.525,200.400 225.991 C 200.400 226.883,199.348 229.200,198.943 229.200 C 198.813 229.200,198.793 228.750,198.898 228.200 C 199.003 227.650,198.934 227.200,198.745 227.200 C 198.555 227.200,198.400 227.740,198.400 228.400 C 198.400 229.274,198.210 229.602,197.700 229.606 C 197.102 229.611,197.087 229.669,197.600 230.000 C 198.113 230.331,198.098 230.389,197.500 230.394 C 196.933 230.399,196.813 230.724,196.867 232.100 L 196.934 233.800 197.091 232.300 C 197.178 231.475,197.439 230.800,197.671 230.800 C 198.446 230.800,201.200 227.707,201.200 226.837 C 201.200 226.291,201.563 225.842,202.200 225.600 C 202.750 225.391,203.200 225.035,203.200 224.810 C 203.200 224.227,204.293 224.301,204.537 224.900 C 204.649 225.175,204.716 224.916,204.685 224.324 C 204.650 223.646,204.357 223.178,203.892 223.056 C 203.322 222.907,203.253 222.981,203.587 223.385 M163.641 224.200 C 163.612 224.640,163.473 225.435,163.330 225.967 C 163.114 226.777,163.187 226.891,163.780 226.663 C 164.292 226.466,164.429 226.549,164.271 226.959 C 163.952 227.791,166.299 231.324,166.994 231.058 C 167.326 230.930,167.486 231.039,167.382 231.320 C 167.130 232.001,169.813 233.647,170.650 233.325 C 171.080 233.160,171.234 233.221,171.068 233.490 C 170.655 234.158,171.410 234.215,177.600 233.978 L 183.400 233.757 177.800 233.664 C 173.988 233.601,171.887 233.398,171.220 233.029 C 170.681 232.731,169.977 232.588,169.655 232.711 C 169.277 232.856,169.171 232.770,169.358 232.468 C 169.546 232.164,169.335 232.000,168.757 232.000 C 168.267 232.000,167.988 231.878,168.137 231.730 C 168.497 231.370,166.781 229.565,166.339 229.838 C 166.149 229.955,165.891 229.724,165.766 229.325 C 165.640 228.926,165.199 227.790,164.785 226.800 C 164.371 225.810,163.956 224.640,163.863 224.200 L 163.693 223.400 163.641 224.200 M188.264 224.329 C 188.337 224.620,188.188 225.250,187.933 225.729 C 187.518 226.508,187.537 226.544,188.117 226.066 C 188.473 225.772,188.953 225.647,189.182 225.789 C 189.421 225.937,189.600 225.694,189.600 225.224 C 189.600 224.771,189.345 224.400,189.033 224.400 C 188.722 224.400,188.391 224.265,188.299 224.100 C 188.207 223.935,188.191 224.038,188.264 224.329 M207.330 224.800 C 206.744 226.834,207.073 227.223,208.377 226.037 C 209.369 225.134,209.421 224.984,208.783 224.875 C 208.379 224.807,207.978 224.447,207.891 224.075 C 207.790 223.644,207.587 223.906,207.330 224.800 M184.267 224.267 C 184.120 224.413,184.036 226.618,184.080 229.167 L 184.161 233.800 184.380 229.000 C 184.594 224.341,184.619 224.234,185.238 225.351 C 185.766 226.303,185.920 226.386,186.133 225.830 C 186.299 225.398,186.234 225.255,185.953 225.429 C 185.660 225.610,185.604 225.418,185.784 224.850 C 186.052 224.006,184.951 223.583,184.267 224.267 M166.622 225.564 C 166.303 226.081,166.812 227.240,167.243 226.974 C 167.440 226.852,167.762 227.175,167.959 227.692 C 168.332 228.674,169.492 229.841,169.794 229.540 C 169.890 229.444,169.294 228.627,168.470 227.726 C 167.646 226.824,167.038 225.887,167.119 225.643 C 167.297 225.110,166.938 225.053,166.622 225.564 M170.533 230.239 C 170.533 230.528,170.683 230.672,170.867 230.559 C 171.050 230.445,171.200 230.515,171.200 230.712 C 171.200 230.910,171.641 231.273,172.181 231.518 C 173.571 232.152,173.147 231.205,171.660 230.357 C 170.789 229.860,170.533 229.833,170.533 230.239 M223.666 230.193 C 223.153 230.476,222.546 230.894,222.318 231.122 C 222.089 231.351,221.609 231.435,221.251 231.310 C 220.757 231.137,220.708 231.199,221.047 231.568 C 221.531 232.094,225.200 230.670,225.200 229.956 C 225.200 229.498,224.822 229.556,223.666 230.193 M175.300 234.697 C 176.785 234.774,179.215 234.774,180.700 234.697 C 182.185 234.620,180.970 234.557,178.000 234.557 C 175.030 234.557,173.815 234.620,175.300 234.697 M214.100 234.697 C 215.585 234.774,218.015 234.774,219.500 234.697 C 220.985 234.620,219.770 234.557,216.800 234.557 C 213.830 234.557,212.615 234.620,214.100 234.697 " stroke="none" fill="#444444" fill-rule="evenodd"></path></g></svg>
